# Blender v2.78 (sub 0) OBJ File: 'cornell.blend'
# www.blender.org
mtllib cornell_red.mtl
o Plane.003
v 4.010000 6.720110 5.689303
v 4.010000 -0.559640 5.689303
v 4.010000 6.720110 -5.689303
v 4.010000 -0.559640 -5.689303
vn -1.0000 0.0000 0.0000
usemtl None
s off
f 3//1 2//1 1//1
f 3//1 4//1 2//1
o Plane.002
v 4.000000 6.720110 5.689303
v 4.000000 -0.559640 5.689303
v 4.000000 6.720110 -5.689303
v 4.000000 -0.559640 -5.689303
vn -1.0000 0.0000 0.0000
usemtl None
s off
f 7//2 6//2 5//2
f 7//2 8//2 6//2
