# Blender v2.78 (sub 0) OBJ File: 'cornell.blend'
# www.blender.org
mtllib cornell_white.mtl
o Plane
v -4.000000 6.175163 5.689303
v 4.000000 6.175163 5.689303
v -4.000000 6.175163 -5.689303
v 4.000000 6.175163 -5.689303
vn 0.0000 -1.0000 0.0000
usemtl None
s off
f 3//1 2//1 1//1
f 3//1 4//1 2//1
o Plane.005
v -4.123796 -0.784086 -3.972616
v 4.123796 -0.784086 -3.972616
v -4.123796 6.944555 -3.972615
v 4.123796 6.944555 -3.972615
vn 0.0000 -0.0000 1.0000
usemtl None
s off
f 6//2 7//2 5//2
f 6//2 8//2 7//2
o Plane.007
v -4.123796 -0.784086 -3.982620
v 4.123796 -0.784086 -3.982620
v -4.123796 6.944555 -3.982620
v 4.123796 6.944555 -3.982620
vn 0.0000 -0.0000 1.0000
usemtl None
s off
f 10//3 11//3 9//3
f 10//3 12//3 11//3
