# Blender v2.78 (sub 0) OBJ File: 'cornell.blend'
# www.blender.org
mtllib cornell_blue.mtl
o Plane.001
v -4.010000 6.720110 5.689303
v -4.010000 -0.559640 5.689303
v -4.010000 6.720110 -5.689303
v -4.010000 -0.559640 -5.689303
vn 1.0000 0.0000 0.0000
usemtl None
s off
f 2//1 3//1 1//1
f 2//1 4//1 3//1
o Plane.006
v -4.000000 6.720110 5.689303
v -4.000000 -0.559640 5.689303
v -4.000000 6.720110 -5.689303
v -4.000000 -0.559640 -5.689303
vn 1.0000 -0.0000 0.0000
usemtl None
s off
f 6//2 7//2 5//2
f 6//2 8//2 7//2
